<svg xmlns="http://www.w3.org/2000/svg" viewBox="0 0 64 64" fill="none">
  <rect width="64" height="64" rx="18" fill="#123524" />
  <path
    d="M15 20.5C15 18.567 16.567 17 18.5 17H33.5C35.433 17 37 18.567 37 20.5V26H44.244C45.49 26 46.642 26.664 47.266 27.742L50.021 32.5C50.337 33.045 50.503 33.664 50.503 34.295V40.5C50.503 42.433 48.936 44 47.003 44H45.553C45.047 47.38 42.13 50 38.61 50C35.09 50 32.173 47.38 31.667 44H25.836C25.33 47.38 22.413 50 18.893 50C15.373 50 12.456 47.38 11.95 44H11.5C9.567 44 8 42.433 8 40.5V31.5C8 29.567 9.567 28 11.5 28H15V20.5Z"
    fill="#F6F7F2"
  />
  <rect x="18" y="21" width="16" height="9" rx="2" fill="#85A947" />
  <path d="M37 30H43.253L45.997 34.72C46.177 35.03 45.953 35.417 45.595 35.417H37V30Z" fill="#85A947" />
  <circle cx="18.893" cy="43.5" r="4.5" fill="#123524" stroke="#F4C95D" stroke-width="2.5" />
  <circle cx="38.61" cy="43.5" r="4.5" fill="#123524" stroke="#F4C95D" stroke-width="2.5" />
</svg>
